<svg width="107" height="52" viewBox="0 0 107 52" fill="none" xmlns="http://www.w3.org/2000/svg">
<path d="M7.584 13.288C7.392 16.84 7.296 20.616 7.296 24.424C10.08 24.04 12.8 23.208 15.328 21.928C15.072 23.112 14.944 24.296 14.944 25.512C14.944 26.696 15.072 27.88 15.328 29.064C12.8 27.816 10.08 26.984 7.296 26.6C7.328 30.376 7.424 34.152 7.584 37.704C7.616 38.28 7.648 38.824 7.68 39.4C6.432 39.112 5.12 38.984 3.84 38.984C2.56 38.984 1.28 39.112 0 39.4C0.032 38.856 0.064 38.312 0.096 37.736C0.288 33.704 0.384 29.384 0.384 25.096C0.384 21.064 0.32 17.032 0.096 13.256L0 11.624C3.264 11.88 6.528 12.008 9.792 12.008C13.088 12.008 16.352 11.88 19.584 11.624C19.328 12.584 19.232 13.768 19.232 14.984C19.232 16.296 19.36 17.64 19.584 18.728C17.696 16.968 17.312 16.136 14.24 14.696C12.192 13.704 9.888 13.384 7.584 13.288ZM29.18 19.016C28.924 22.792 28.828 25.64 28.828 28.392C28.828 31.688 28.956 34.856 29.18 39.4C27.932 39.112 26.62 38.984 25.34 38.984C24.06 38.984 22.78 39.112 21.5 39.4C21.788 34.92 21.948 32.328 21.948 29.576C21.948 27.144 21.82 24.648 21.5 20.648H21.852C24.348 20.648 26.94 20.008 29.18 19.016ZM25.404 18.664C23.452 18.664 21.884 17.096 21.884 15.144C21.884 13.224 23.452 11.656 25.404 11.656C27.324 11.656 28.892 13.224 28.892 15.144C28.892 17.096 27.324 18.664 25.404 18.664ZM50.8935 32.456L51.0215 32.648C49.9335 35.72 46.7655 39.4 41.7735 39.4C35.2135 39.4 31.4375 34.824 31.4375 29.192C31.4375 23.56 35.4375 18.952 41.9975 18.952C47.5975 18.952 50.7335 23.56 50.7335 26.696C50.7335 29.544 47.0535 29.8 42.3815 29.8H38.9255C39.6935 33.48 42.4455 35.144 45.3255 35.144C47.5335 35.144 49.3895 34.312 50.8935 32.456ZM41.6775 20.616C39.6295 20.616 38.5735 24.168 38.5735 27.048C38.5735 27.624 38.6375 28.136 38.7015 28.616C39.1495 28.616 39.6295 28.648 40.1095 28.648C42.0935 28.648 44.0135 28.328 44.0135 25.224C44.0135 22.76 43.0535 20.616 41.6775 20.616ZM58.246 22.536C58.246 26.376 70.15 27.208 70.246 33.192V33.224C70.246 37.288 65.766 39.368 61.51 39.432H61.35C55.494 39.432 52.166 36.296 51.75 35.4C53.35 34.504 54.662 33.224 55.654 31.656L55.814 31.368C55.878 33.416 57.062 37.448 61.126 37.448H61.222C61.542 37.448 64.102 37.32 64.102 35.112V35.08C64.07 31.432 52.742 30.568 52.678 24.904V24.808C52.678 20.616 57.286 18.632 60.966 18.6H61.158C64.742 18.6 67.878 20.424 69.51 22.248C67.846 23.08 66.63 24.136 65.83 25.768L65.51 26.44V26.024C65.51 23.752 64.71 20.36 61.254 20.36C59.91 20.36 58.246 21.032 58.246 22.536ZM80.1805 19.112L83.4125 18.984V20.616L81.7165 20.552C81.2045 20.552 80.6605 20.52 80.1485 20.52C80.0845 22.728 80.0525 24.872 80.0525 27.048C80.0525 31.016 80.1805 35.016 80.4365 39.4C79.1885 39.112 77.8765 38.984 76.5965 38.984C75.3165 38.984 74.0365 39.112 72.7565 39.4C73.0125 35.016 73.1725 31.048 73.1725 27.048C73.1725 24.904 73.1085 22.728 73.0445 20.52C72.5005 20.52 71.9885 20.552 71.4765 20.552L69.8125 20.616V18.984L72.9805 19.112C72.9165 17.96 72.8525 16.776 72.7565 15.56H73.1085C75.6045 15.56 78.1965 14.92 80.4365 13.928C80.3405 15.688 80.2445 17.416 80.1805 19.112ZM96.1595 19.016H96.1915C98.0155 19.016 99.6795 19.24 101.344 19.24C102.176 19.24 103.008 19.176 103.84 19.016C103.584 21.992 103.456 25.16 103.456 28.328C103.456 32.2 103.68 36.04 104.192 39.4C102.944 39.112 101.568 38.984 100.192 38.984C98.8155 38.984 97.4395 39.112 96.1595 39.4V34.888C95.6155 36.232 93.3435 39.4 89.3115 39.4C87.6795 39.4 82.6875 38.824 82.6875 32.04C82.6875 20.648 94.2395 19.016 96.1595 19.016ZM92.7995 36.936C93.9835 36.936 95.2955 35.304 96.1595 33.672V20.68C93.5355 21 90.3675 24.296 90.3675 31.848C90.3675 35.656 91.6475 36.936 92.7995 36.936Z" fill="#E6C833"/>
</svg>
